<svg width="200" height="200" viewBox="0 0 200 200" fill="none" xmlns="http://www.w3.org/2000/svg">
<path d="M144.758 48.1912C144.758 50.9178 143.948 53.5832 142.431 55.8503C140.914 58.1174 138.757 59.8845 136.234 60.9279C133.711 61.9713 130.934 62.2443 128.256 61.7124C125.577 61.1805 123.117 59.8675 121.186 57.9394C119.255 56.0114 117.939 53.5549 117.407 50.8807C116.874 48.2064 117.147 45.4345 118.192 42.9154C119.237 40.3963 121.007 38.2432 123.278 36.7284C125.549 35.2135 128.219 34.405 130.95 34.405C134.612 34.405 138.124 35.8575 140.714 38.4429C143.303 41.0283 144.758 44.5348 144.758 48.1912ZM199.992 48.7598C200.268 76.2029 193.476 100.26 180.367 118.345C166.852 137 146.804 149.545 120.818 155.646C104.248 159.54 85.097 160.815 63.5472 159.42C64.8533 168.317 66.5793 177.606 68.7254 187.285C69.0411 188.62 69.0875 190.004 68.8621 191.357C68.6366 192.71 68.1437 194.005 67.4121 195.166C66.6805 196.327 65.7247 197.331 64.6006 198.12C63.4765 198.909 62.2064 199.466 60.8644 199.76C59.5224 200.054 58.1352 200.078 56.7837 199.831C55.4321 199.585 54.1433 199.072 52.9922 198.323C51.8411 197.574 50.8507 196.604 50.0788 195.469C49.3069 194.335 48.7689 193.058 48.496 191.714C45.8609 179.737 43.8242 168.274 42.3858 157.326C31.4541 155.89 19.9845 153.859 7.97689 151.234C5.33157 150.61 3.03779 148.974 1.59044 146.677C0.143097 144.38 -0.341792 141.607 0.240394 138.956C0.822581 136.306 2.42517 133.99 4.7024 132.508C6.97963 131.027 9.74894 130.498 12.4129 131.037C22.096 133.145 31.3908 134.869 40.2973 136.207C38.9337 114.666 40.1851 95.6069 44.0773 79.0807C50.1876 53.1111 62.7533 33.1039 81.4205 19.628C99.5441 6.52252 123.64 -0.275772 151.136 0.00856759C169.941 0.189511 187.383 3.81699 190.663 5.72982C192.171 6.61641 193.43 7.87037 194.322 9.37453C196.169 12.554 199.802 29.9848 199.992 48.7598ZM149.539 120.517C132.711 115.939 117.371 107.054 105.038 94.7402C92.7048 82.4268 83.8052 67.112 79.2198 50.3108C71.2713 60.7882 65.7911 74.066 62.8827 89.9459C60.2936 104.068 59.724 120.319 61.1567 138.534C79.4183 139.955 95.6778 139.395 109.849 136.81C125.772 133.915 139.036 128.444 149.531 120.517H149.539ZM176.69 23.2038C162.968 20.6189 125.513 15.923 97.0672 33.9225C99.2649 51.3963 107.228 67.642 119.7 80.0957C132.173 92.5494 148.444 100.502 165.945 102.698C183.965 74.3159 179.279 36.921 176.69 23.2038Z" fill="#78B6CE"/>
</svg>
