<svg width="200" height="200" viewBox="0 0 200 200" fill="none" xmlns="http://www.w3.org/2000/svg">
<path d="M133.509 2.22384e-05C133.497 9.31783e-06 133.487 0.00966659 133.487 0.0215832C133.487 0.0334915 133.478 0.043145 133.466 0.0431462C125.197 0.0439264 117.431 0.492838 110.882 1.61365C70.1681 8.5515 2.33193 32.286 2.83613 56.6202C2.90726 60.0287 13.5254 56.4154 28.7069 50.6255C30.2258 50.0462 30.7943 48.1999 30.4538 46.6104C29.5294 42.339 31.9286 38.4558 35.084 35.7808C38.2353 33.0583 42.479 30.9916 47.395 29.8741C52.3109 28.7394 57.0168 28.7782 60.9244 29.8741C63.4199 30.5492 66.6482 29.4654 68.3713 27.5382C69.0106 26.8231 69.7187 26.1587 70.4622 25.5509C73.7395 22.9061 78.1513 20.8998 83.2773 19.791C88.4454 18.6864 93.3193 18.6951 97.437 19.7478C101.258 20.7407 106.994 19.9235 110.39 17.9095C110.703 17.7238 111.022 17.5469 111.345 17.3791C115.21 15.3858 119.958 14.3287 125.168 14.3546H126.218C131.849 14.5401 136.933 15.9381 140.924 18.3283C144.341 20.3771 149.675 20.9667 153.484 19.7998C153.735 19.7228 153.989 19.6508 154.244 19.5839C159.034 18.3197 164.706 18.5354 170.588 20.2699C176.429 22.0044 181.471 24.9728 185 28.7006C187.328 31.1362 189.118 34.0831 189.748 37.2036C190.214 39.507 191.645 41.8165 193.883 42.5325C196.969 43.5199 200 41.1846 200 37.9446V20.949C200 12.4793 193.836 5.24572 185.442 4.11776C169.02 1.91106 150.145 0.0180599 133.509 2.22384e-05ZM125.168 22.1446C125.168 22.141 125.165 22.1381 125.162 22.1381C121.005 22.139 117.268 23.0362 114.79 24.3256C112.143 25.7063 111.303 27.1646 111.26 28.0836C111.218 29.0026 111.975 30.5127 114.538 32.0616C117.101 33.6106 121.176 34.8316 125.672 34.961C130.168 35.1336 134.244 34.1844 136.891 32.7908C139.538 31.4101 140.378 29.9518 140.42 29.0371C140.42 28.1181 139.664 26.608 137.101 25.0548C134.538 23.5101 130.504 22.2977 126.008 22.151H125.175C125.171 22.151 125.168 22.1482 125.168 22.1446ZM161.176 26.6684C159.37 26.6684 157.689 26.8496 156.303 27.2164C153.151 28.0663 151.681 29.5419 151.303 30.9528C150.966 32.3637 151.597 34.4433 153.95 36.9457C156.303 39.4051 160.252 41.8644 165 43.2882C169.706 44.6688 174.244 44.7551 177.437 43.8922C180.588 43.0293 182.059 41.5623 182.395 40.1817C182.731 38.7579 182.143 36.6437 179.79 34.1844C177.395 31.6906 173.445 29.2399 168.739 27.8377C166.092 27.0524 163.487 26.69 161.176 26.6684ZM90.9244 26.7202C89.1176 26.7202 87.1008 26.9273 85 27.3717C80.8403 28.2648 77.3529 29.9432 75.2521 31.6776C73.1933 33.356 72.9412 34.6159 72.9832 34.8747C73.0672 35.1768 73.8235 36.2123 76.4286 36.9026C79.0756 37.5929 82.9832 37.6792 87.1429 36.7732C91.3025 35.9102 94.7899 34.2276 96.9328 32.4802C98.9916 30.8018 99.2437 29.5592 99.1597 29.2658C99.0756 28.9724 98.3613 27.9412 95.7143 27.2725C94.4118 26.9187 92.7731 26.7202 90.9244 26.7202ZM54.5378 36.8595C52.8151 36.8595 50.9244 37.032 48.9916 37.4635C45.1261 38.3264 41.8908 40.0522 39.916 41.6918C37.9832 43.3745 37.7731 44.5825 37.8571 44.9277C37.8992 45.316 38.6134 46.3084 41.0924 46.9987C43.5294 47.6459 47.1849 47.7753 51.0504 46.9124C54.916 46.0064 58.1933 44.2805 60.1261 42.6841C62.0588 41.0014 62.3109 39.7934 62.2269 39.405C62.1429 39.0167 61.4286 38.0244 58.9916 37.3772C57.7731 37.0752 56.2605 36.8595 54.5378 36.8595ZM129.916 61.2368C122.25 61.2368 123.068 67.8434 130.001 71.1141C141.594 76.5835 156.054 85.4854 154.16 95.2357C151.7 108.007 140.328 113.827 126.12 116.274C120.666 117.213 116.175 121.94 111.597 125.049C108.403 127.336 104.244 128.674 99.4958 128.976C94.7479 129.278 90.2941 128.458 86.5966 126.603C83.256 124.988 76.2404 124.805 72.7835 126.152C72.6131 126.219 72.4415 126.282 72.2689 126.344C68.0252 127.811 62.7731 128.07 57.1849 127.034C51.6387 125.956 46.6387 123.712 42.8571 120.649C41.8212 119.805 40.8536 118.86 40.006 117.833C38.291 115.757 35.0939 114.653 32.479 115.299C27.8529 116.463 22.1597 116.248 16.1555 114.781C10.1345 113.271 4.84034 110.725 0.890757 107.446C0.543456 107.149 0 107.394 0 107.851V127.517C0 131.254 2.22208 134.64 5.68006 136.057C26.7074 144.677 52.88 153.304 70.8824 151.843C113.361 148.348 185.63 137.173 185.378 93.4236C185.252 73.706 150.252 61.28 129.916 61.2368ZM11.3277 93.1216C9.45378 93.1216 7.76891 93.3373 6.37395 93.6825C3.18908 94.4159 2.09664 95.7966 1.97899 96.5732C1.86134 97.3067 2.47479 99.1188 5.20168 101.319C7.92437 103.606 12.2899 105.85 17.3277 107.101C22.3487 108.352 27.0504 108.352 30.2689 107.575C33.437 106.799 34.5378 105.461 34.6639 104.685C34.7479 103.908 34.1513 102.139 31.437 99.8955C28.6933 97.6087 24.3277 95.4083 19.3067 94.1571C16.4706 93.4667 13.7437 93.1216 11.3277 93.1216ZM53.8655 105.763C51.5966 105.763 49.6218 106.108 48.0672 106.712C45.2941 107.662 44.3277 109.042 44.2017 109.992C44.1176 110.941 44.7479 112.623 47.2269 114.565C49.6639 116.593 53.5294 118.448 58.0252 119.311C62.521 120.174 66.6807 119.872 69.4118 118.88C72.1849 117.887 73.1933 116.507 73.2773 115.601C73.4034 114.651 72.7311 112.925 70.2941 110.984C67.8571 108.956 63.9496 107.144 59.4538 106.281C57.479 105.893 55.5882 105.72 53.8655 105.763ZM98.6555 111.2C98.1933 111.2 97.7731 111.2 97.3109 111.243C93.7815 111.459 90.6723 112.58 88.8655 113.875C86.9748 115.169 86.6387 116.291 86.6807 116.938C86.7647 117.585 87.437 118.664 89.5798 119.699C91.6807 120.778 95 121.468 98.5294 121.253C102.101 121.037 105.21 119.958 107.017 118.621C108.908 117.326 109.244 116.205 109.16 115.557C109.118 114.91 108.445 113.832 106.303 112.796C104.454 111.847 101.681 111.2 98.6555 111.2ZM200 150.358C200 146.927 197.16 144.184 193.862 145.133C192.099 145.641 190.238 146.338 188.361 147.226C183.866 149.384 180.252 152.274 178.235 154.82C176.176 157.366 176.134 159.005 176.303 159.394C176.471 159.782 177.731 160.731 180.924 160.774C184.16 160.817 188.613 159.782 193.109 157.625C194.755 156.82 196.288 155.931 197.666 155.001C199.192 153.971 200 152.2 200 150.358ZM10.7101 150.678C-17.9916 150.29 64.2017 188.689 89.7899 196.283C117.625 204.513 159.681 197.652 192.744 189.499C197.029 188.442 200 184.576 200 180.162V166.872C200 165.043 197.962 163.888 196.303 164.657C190.924 167.246 185.588 168.584 180.882 168.54C178.853 168.54 176.783 168.247 174.954 167.578C174.915 167.563 174.846 167.579 174.834 167.619C174.831 167.627 174.83 167.639 174.826 167.647C173.944 169.454 172.601 171.046 170.966 172.467C167.731 175.314 163.193 177.687 157.857 179.284C152.563 180.88 147.395 181.398 142.983 180.837C140.798 180.535 138.739 179.974 136.891 178.939C136.014 178.454 134.858 178.727 134.304 179.561C133.17 181.264 131.564 182.729 129.79 183.9C126.218 186.316 121.471 187.956 116.176 188.646C110.882 189.294 105.924 188.905 101.933 187.438C100.708 187.003 99.5067 186.441 98.4144 185.744C95.7332 184.032 91.6144 182.995 88.5294 183.771C84.4958 184.85 79.6218 184.85 74.5798 183.728C69.5378 182.649 65.084 180.621 61.8067 177.989C56.5911 173.69 52.1264 166.635 45.8185 164.206C28.3855 157.492 17.8149 150.786 10.7101 150.678ZM161.807 161.939C159.118 161.896 155.882 162.371 152.563 163.363C148.109 164.7 144.37 166.771 142.185 168.713C141.092 169.662 140.42 170.611 140.126 171.172C139.916 171.604 140.055 172.057 140.462 172.311C140.476 172.32 140.49 172.328 140.504 172.337C141.092 172.639 142.185 173.028 143.697 173.2C146.639 173.632 150.966 173.286 155.42 171.949C159.832 170.611 163.613 168.54 165.798 166.599C166.891 165.65 167.563 164.744 167.857 164.14C168.109 163.535 168.067 163.406 168.067 163.449C168.067 163.492 168.067 163.363 167.479 163.018C166.891 162.673 165.756 162.284 164.286 162.112C163.529 161.982 162.689 161.939 161.807 161.939ZM72.3109 166.254C70.5042 166.254 68.9076 166.469 67.605 166.815C65 167.462 64.3277 168.454 64.2857 168.713C64.2437 168.972 64.4538 170.18 66.5546 171.863C68.6134 173.545 72.1008 175.228 76.1765 176.134C80.2521 176.997 84.1597 176.911 86.6807 176.22C87.6971 175.968 88.4193 175.663 88.9246 175.369C89.8069 174.857 90.0449 173.759 89.4621 172.921C89.1222 172.433 88.5898 171.84 87.7731 171.172C85.7143 169.49 82.1849 167.807 78.1092 166.901C76.0924 166.469 74.0756 166.254 72.3109 166.254ZM117.395 170.913C116.387 170.913 115.336 171 114.244 171.129C109.958 171.69 106.176 173.071 103.824 174.624C101.513 176.177 101.092 177.472 101.134 177.774C101.176 178.076 101.849 179.197 104.454 180.103C107.059 181.053 111.05 181.484 115.336 180.923C119.622 180.362 123.403 178.982 125.714 177.428C128.025 175.875 128.445 174.624 128.403 174.322C128.403 174.02 127.689 172.898 125.126 171.949C123.445 171.345 121.092 170.957 118.529 170.913H117.395Z" fill="#78B6CE"/>
</svg>
