<svg width="207" height="205" viewBox="0 0 207 205" fill="none" xmlns="http://www.w3.org/2000/svg">
<path d="M146.363 5L119.73 63.9627C117.858 63.5956 115.969 63.273 114.045 63.0453L90.3538 14.5614L86.8969 64.5147C85.1535 64.9206 83.4476 65.407 81.7614 65.9329L49.2421 18.0517L42.4822 21.0842L58.0974 78.2561C52.2106 82.8887 47.1796 88.3757 43.2712 94.5185L10.4759 81.7568L6.53821 87.9351L35.2336 114.16C34.4693 117.866 34.0521 121.683 34.0521 125.594C34.0521 126.546 34.0855 127.49 34.1319 128.432L15.5549 142.824L37.2071 144.293C38.8268 148.963 41.0586 153.383 43.7821 157.51L21.1838 197.848L26.9227 202.465L60.1448 174.432C69.2686 181.072 80.2412 185.727 92.2616 187.65L102.181 205L108.773 188.554C121.901 187.882 134.099 184.009 144.383 177.75L196.651 198.507L200.759 192.48L165.94 156.995C167.522 154.565 168.946 152.042 170.148 149.411L191.922 148.848L174.66 134.483C175.118 131.578 175.37 128.614 175.37 125.594C175.37 122.247 175.075 118.966 174.515 115.764L206.538 63.247L159.887 86.2017C155.16 80.9313 149.501 76.3684 143.153 72.6826L153.518 7.08323L146.363 5ZM141.726 33.5064L128.23 118.92L135.667 120.064L141.903 80.5968C157.664 90.7538 167.844 107.174 167.844 125.594C167.844 134.939 165.22 143.77 160.582 151.533L144.367 135.009L138.96 140.175L183.04 185.096L126.903 162.803L124.094 169.692L135.483 174.214C128.355 177.724 120.371 180.051 111.844 180.89L114.99 173.042L107.992 170.312L100.984 187.794L87.7971 164.728L81.2421 168.377L87.3966 179.142C79.4957 177.158 72.243 173.863 65.9531 169.532L80.8763 156.939L75.9845 151.296L37.8221 183.498L62.7952 138.922L56.2084 135.33L47.9894 150.001C43.895 142.615 41.5783 134.335 41.5783 125.594C41.5783 123.788 41.6991 122.008 41.8952 120.246L50.6385 128.237L55.7519 122.79L26.3461 95.9149L64.1105 110.611L66.8725 103.702L50.3739 97.2828C53.1183 93.1955 56.4426 89.4486 60.2439 86.1167L62.837 95.61L70.1035 93.6782L55.6808 40.8694L87.3652 87.5205L93.617 83.387L86.1531 72.3983C92.0166 70.8073 98.2299 69.9026 104.711 69.9026C108.782 69.9026 112.756 70.2421 116.602 70.8877L103.718 99.411L110.592 102.434L141.726 33.5064ZM95.9245 43.0603L105.421 62.4941C105.183 62.4921 104.949 62.4777 104.711 62.4777C101.258 62.4777 97.862 62.7107 94.5356 63.141L95.9245 43.0603ZM186.763 81.2741L171.807 105.801C170.02 100.967 167.602 96.395 164.633 92.1634L186.763 81.2741ZM76.4373 113.762L91.4137 149.406L98.3654 146.563L89.4975 125.457L115.133 133.174L117.33 126.072L76.4373 113.762Z" fill="#78B6CE"/>
</svg>
