<svg width="200" height="200" viewBox="0 0 200 200" fill="none" xmlns="http://www.w3.org/2000/svg">
<path d="M74.9858 12.003C74.9858 11.9241 75.0498 11.8601 75.1287 11.8601C78.848 11.8601 82.1064 9.72655 83.9889 6.48598C85.8711 3.24615 82.6604 0 78.9136 0H72.179C72.1515 0 72.1293 0.0222639 72.1293 0.0497277C72.1293 0.0758719 72.109 0.0975512 72.0829 0.099368C60.3033 0.91994 49.2446 6.748 41.1594 16.3978C33.2076 25.8884 28.721 38.3727 28.5709 51.3811C28.5664 51.7716 28.8835 52.0885 29.2741 52.0885C29.7681 52.0885 30.1118 52.5838 29.9947 53.0638C29.6272 54.5708 29.6669 56.1752 30.1203 57.669C30.3352 58.3769 30.6372 59.0409 31.0138 59.6438C31.8506 60.9837 31.9186 63.0605 31.2315 64.4831C30.7403 65.5002 30.4824 66.6384 30.4809 67.7952C30.4809 75.0875 32.8555 81.7356 36.7725 86.8497C37.7197 88.0864 38.1136 89.5161 37.6769 91.0114C36.6478 94.5352 31.915 96.2405 29.4755 93.4972L12.3204 74.2061C9.10682 70.6801 3.7508 73.4047 3.96505 78.4533C4.32211 88.4703 7.9642 98.327 14.7485 105.94C20.1133 111.988 27.0064 116.003 34.4645 117.461C35.6931 117.701 36.6781 118.668 36.8992 119.9C37.2172 121.672 35.8806 123.33 34.0798 123.33H4.89342C0.394367 123.33 -1.67663 129.5 1.6084 132.946C7.14267 138.645 14.0968 142.31 21.5392 143.45C28.0483 144.447 34.6589 143.471 40.6922 140.651C42.1076 139.989 43.8331 140.517 44.579 141.89C45.2913 143.201 44.8659 144.841 43.647 145.701C39.1634 148.867 35.3316 153.087 32.4228 158.082C29.0367 163.897 27.0106 170.576 26.5317 177.502C26.1747 182.55 31.4593 185.435 34.7443 182.069L54.1813 161.736C55.8426 159.998 58.5972 159.964 60.4317 161.518C61.6494 162.55 62.2521 164.129 62.0731 165.715C61.9348 166.94 61.8469 168.173 61.81 169.408C61.453 180.306 64.8094 190.323 70.6653 198.016C73.5933 201.863 79.2349 199.779 79.3778 194.651L79.428 193.15C79.7642 183.112 89.9372 176.308 99.9806 176.3C110.007 176.306 120.159 183.1 120.493 193.121L120.512 193.689C120.655 198.818 126.296 200.901 129.224 197.055C135.08 189.362 138.437 179.345 138.08 168.446C138.051 167.459 137.99 166.474 137.896 165.493C137.754 164.005 138.33 162.533 139.471 161.567C141.224 160.084 143.852 160.127 145.44 161.785L164.86 182.069C168.145 185.515 173.501 182.55 173.144 177.502C172.43 167.485 168.43 157.708 161.361 150.255C159.806 148.615 158.129 147.13 156.349 145.815C155.102 144.893 154.677 143.193 155.415 141.829C156.194 140.391 157.993 139.823 159.486 140.49C163.848 142.438 168.509 143.444 173.222 143.444C182.935 143.444 191.79 139.277 198.36 132.465C201.716 129.019 199.574 122.769 195.075 122.769H166.025C164.213 122.769 162.868 121.094 163.17 119.308C163.381 118.059 164.363 117.081 165.603 116.824C172.969 115.296 179.764 111.285 185.07 105.299C191.926 97.6058 195.568 87.6689 195.925 77.5718C196.139 72.5232 190.711 69.7184 187.498 73.3246L170.427 92.4807C167.967 95.2407 163.144 93.7242 162.035 90.1973C161.577 88.7382 161.864 87.1592 162.746 85.9096C166.369 80.7752 168.356 74.3946 168.345 67.7952C168.343 66.6454 168.088 65.5139 167.602 64.5017C166.922 63.0864 167.003 61.0231 167.846 59.6987C168.235 59.0883 168.546 58.4139 168.768 57.6933C169.167 56.3946 169.252 55.0109 169.029 53.6794C168.896 52.8922 169.453 52.0885 170.251 52.0885C170.883 52.0885 171.396 51.5769 171.384 50.9458C171.142 38.2327 166.76 26.0426 159.046 16.6921C151.117 7.0818 140.252 1.17887 128.619 0.158566C128.578 0.154966 128.546 0.120608 128.546 0.0793945C128.546 0.0355461 128.51 0 128.467 0H121.405C117.461 0 114.074 3.44206 116.156 6.79203C118.063 9.86022 121.232 11.8601 124.832 11.8601C124.911 11.8601 124.975 11.9241 124.975 12.003V14.3618C124.975 14.4407 124.911 14.5046 124.832 14.5046C120.976 14.5046 117.616 16.7981 115.77 20.2409C114.108 23.3415 117.115 26.3648 120.633 26.3648C123.637 26.3648 126.175 28.4885 127.21 31.3077C129.158 36.6094 132.294 41.2916 136.347 44.8779C141.621 49.5438 148.139 52.0835 154.855 52.0885C155.262 52.0885 155.546 52.4969 155.441 52.8909C155.025 54.4562 155.053 56.1358 155.532 57.6933C155.753 58.4139 156.064 59.0883 156.453 59.6987C157.296 61.0231 157.377 63.0864 156.698 64.5017C156.212 65.5139 155.956 66.6454 155.954 67.7952C155.954 72.4439 150.354 73.3768 146.237 71.2172C141.98 68.9842 137.097 67.4356 131.73 66.3693C129.91 66.0077 128.737 64.2258 128.387 62.4037C128.173 61.2925 127.751 60.2451 127.149 59.331C126.547 58.4169 125.778 57.657 124.894 57.1019C124.01 56.5467 123.031 56.2089 122.022 56.111C121.013 56.013 119.996 56.1571 119.04 56.5337C118.085 56.9103 117.211 57.5108 116.478 58.2953C115.745 59.0798 115.169 60.0303 114.788 61.0838C114.169 62.798 112.713 64.3335 110.891 64.2723C107.255 64.15 103.618 64.0956 99.9806 64.1089C95.1634 64.0985 90.5012 64.1929 85.994 64.3922C85.8326 64.3993 85.6979 64.2704 85.6979 64.1089C85.6965 62.9861 85.4848 61.8762 85.0766 60.8511C84.6685 59.826 84.0729 58.9085 83.3285 58.1583C82.5841 57.408 81.7075 56.8416 80.7556 56.4959C79.8036 56.1502 78.7975 56.0328 77.8026 56.1513C76.8076 56.2698 75.8459 56.6217 74.9799 57.184C74.1138 57.7463 73.3628 58.5066 72.7753 59.4155C72.1879 60.3245 71.7773 61.3618 71.57 62.4602C71.23 64.2622 70.0709 66.0215 68.2723 66.3788C62.8388 67.4582 57.9006 69.0322 53.6039 71.3077C49.0799 73.7035 42.8611 72.9143 42.8711 67.7952C42.8711 67.4116 42.8433 67.0349 42.7898 66.6677C42.4089 64.0528 42.5746 60.2388 43.3554 57.7143C43.7328 56.4939 43.8333 55.1979 43.6602 53.9403C43.5339 53.0232 44.1806 52.0885 45.1064 52.0885C51.8217 52.0835 58.3404 49.5438 63.6136 44.8779C67.6669 41.2916 70.8032 36.6094 72.7507 31.3077C73.7863 28.4885 76.3245 26.3648 79.3279 26.3648C82.8459 26.3648 85.8532 23.3415 84.1911 20.2409C82.3455 16.7981 78.9848 14.5046 75.1287 14.5046C75.0498 14.5046 74.9858 14.4407 74.9858 14.3618V12.003Z" fill="#C5C2C2"/>
</svg>
