<svg width="200" height="200" viewBox="0 0 200 200" fill="none" xmlns="http://www.w3.org/2000/svg">
<path d="M93.0459 94.7005C93.0459 96.1228 93.6109 97.4867 94.6165 98.4924C95.6222 99.4981 96.9862 100.063 98.4084 100.063C99.8306 100.063 101.195 99.4981 102.2 98.4924C103.206 97.4867 103.771 96.1228 103.771 94.7005V87.9755C103.761 86.5563 103.193 85.1981 102.189 84.1945C101.186 83.191 99.8276 82.6229 98.4084 82.613C96.9892 82.6229 95.6309 83.191 94.6274 84.1945C93.6238 85.1981 93.0557 86.5563 93.0459 87.9755V94.7005Z" fill="#C5C2C2"/>
<path d="M157.375 10.8938C156.1 9.36878 154.138 7.41878 150.981 6.80003C148.325 6.28128 145.706 6.94378 143.775 7.48753C142.255 7.95221 140.832 8.68918 139.575 9.66253C138.45 10.5 137.388 11.4938 136.419 12.5C134.414 14.636 132.561 16.9104 130.875 19.3063C128.863 22.1188 127.556 24.975 127.075 28.2313C126.922 29.2635 126.855 30.3067 126.875 31.35C121.644 31.85 115.888 34.3625 111.031 40.4375L108.581 43.4688C107.444 44.8625 106.381 46.1688 105.569 47.225C104.845 48.1368 104.173 49.0883 103.556 50.075C103.219 50.6203 102.925 51.1908 102.675 51.7813C102.438 52.3688 102.05 53.4438 102.05 54.7813C102.05 55.9688 102.244 57.0313 102.569 57.9813C98.4511 56.7913 94.1862 56.1874 89.9 56.1875H69.45C70.1942 56.0499 70.8752 55.679 71.3944 55.1283C71.9136 54.5777 72.2439 53.876 72.3375 53.125L75.025 33.9375C75.2125 32.4375 76.525 31.25 78.15 31.25C79.8375 31.25 81.275 32.6875 81.275 34.375C81.275 39.5 85.4 43.625 90.4625 43.75C95.7125 43.875 100.025 39.4375 100.025 34.1875V31.25C100.025 20.875 91.65 12.5 81.275 12.5C76.4625 12.5 72.0875 14.5 68.775 17.6875C65.4625 14.5 61.0875 12.5 56.275 12.5C45.9 12.5 37.525 20.875 37.525 31.25V34.1875C37.525 39.4375 41.8375 43.875 47.0875 43.75C52.15 43.625 56.275 39.5 56.275 34.375C56.275 32.6875 57.7125 31.25 59.4 31.25C61.025 31.25 62.3375 32.4375 62.525 33.9375L65.2125 53.125C65.3061 53.876 65.6364 54.5777 66.1556 55.1283C66.6748 55.679 67.3558 56.0499 68.1 56.1875H48.9625C39.775 56.1875 29.4375 60.7625 21.5375 67.25C13.75 73.6375 6.95 83.0438 6.8125 93.85H6.78125L7.075 100.288C8.05625 121.725 15.9375 143.313 29.0688 160.406L16.25 170.55C9 176.119 12.9312 187.738 22.0875 187.738H43.225C46.7188 187.738 51.15 186.7 54.1938 185.881C55.375 185.569 56.4625 185.25 57.3688 184.975C70.5538 192.188 85.5432 195.435 100.531 194.325C115.781 193.269 128.969 190.725 140.169 186.431C140.756 186.681 141.385 186.835 142.056 186.894C149.538 187.519 155.419 187.519 164.475 187.506H168.263C170.956 187.506 173.75 187.075 176.1 185.65C178.769 184.031 180.338 181.425 180.569 178.506C180.775 175.95 179.931 173.713 179.081 172.144C178.199 170.546 177.063 169.103 175.719 167.869C174.238 166.553 172.71 165.292 171.138 164.088C172.113 162.813 173.042 161.494 173.925 160.131C183.525 145.363 187.5 126.213 187.5 102.938V102.875C187.25 75.6688 177.313 54.475 157.5 38.75C159.563 34.4313 160.513 29.6125 160.738 25.4438C160.895 22.8898 160.75 20.3263 160.306 17.8063C159.906 15.6563 159.119 12.9688 157.375 10.8938ZM164.481 175.013C155.888 175.013 150.656 175.025 144.294 174.538L141.756 173.788C124.506 168.7 117.794 164.425 114.481 159.325C112.806 156.75 111.712 153.506 110.969 148.838C110.212 144.088 109.881 138.375 109.469 130.9L109.362 129.15C108.7 117.375 101.125 108.638 93.025 103.044C84.925 97.45 75.2125 94.1813 67.9313 93.7688C58.5813 93.2375 31.6563 93.5063 19.3188 93.6688C19.5438 88.125 23.2563 82.0125 29.4688 76.9188C35.8438 71.6813 43.4688 68.6938 48.9625 68.6938H89.9C98.6012 68.7002 106.947 72.1468 113.117 78.2818C119.287 84.4169 122.781 92.7428 122.838 101.444C122.188 112.381 129.963 119.988 138.113 121.956C142.288 122.956 147.038 122.631 151.15 120.131C155.381 117.556 158.169 113.156 159.119 107.556C162.456 87.975 157.7 64.5563 143.719 49.2125L143.156 48.5938L142.45 48.15C140.978 47.1726 139.26 46.6309 137.494 46.5875C136.433 46.5934 135.383 46.8102 134.407 47.2255C133.431 47.6407 132.547 48.2461 131.806 49.0063C128.444 52.3688 126.006 53.5875 123.756 54.0313C121.863 54.4063 119.606 54.3375 116.35 53.7375L118.094 51.5938L120.8 48.2438C123.806 44.4813 126.794 43.7563 128.906 43.7563C130.506 43.7563 131.425 43.8188 132.056 43.8563L132.231 43.8688H132.281C132.531 43.8875 133.219 43.9313 133.906 43.8688C135.451 43.7433 136.905 43.0902 138.025 42.0193C139.145 40.9484 139.862 39.5248 140.056 37.9875C140.206 36.8546 140.106 35.7025 139.763 34.6125C139.35 32.3125 139.306 31.0188 139.45 30.05C139.575 29.175 139.913 28.1625 141.044 26.5813C142.519 24.5188 144.044 22.6063 145.419 21.1875C146.102 20.4792 146.652 19.9729 147.069 19.6688L147.369 19.4625L147.844 19.3375C147.906 19.5375 147.965 19.7917 148.019 20.1C148.244 21.3063 148.356 22.925 148.256 24.775C148.05 28.5813 147.013 32.4188 145.319 34.9813C144.463 36.2688 143.244 38.6063 143.906 41.5438C144.419 43.8188 145.919 45.3813 146.388 45.8688L146.456 45.9375L146.844 46.3438L147.294 46.675C165.594 60.1125 174.763 78.2 175 102.969C175 125.006 171.194 141.406 163.444 153.325C162.719 154.45 161.954 155.533 161.15 156.575C155.785 152.646 150.377 148.777 144.925 144.969C144.252 144.498 143.493 144.165 142.691 143.988C141.889 143.811 141.061 143.794 140.252 143.938C138.619 144.227 137.169 145.153 136.219 146.513C135.269 147.872 134.898 149.553 135.188 151.185C135.477 152.818 136.403 154.269 137.763 155.219C149.169 163.188 159.75 170.981 164.794 175.006L164.481 175.013ZM43.1688 175.244H30.475L37.3063 169.838C39.1813 171.725 41.1354 173.527 43.1688 175.244ZM135.338 101.625C135.34 94.9489 133.869 88.3544 131.03 82.3121C128.191 76.2697 124.053 70.9283 118.912 66.6688C121.35 66.8438 123.769 66.7625 126.175 66.2875C130.219 65.4875 133.788 63.6813 137.2 60.95C146.05 72.9438 149.375 90.3063 146.8 105.45C146.356 108.063 145.325 109.038 144.656 109.444C143.863 109.925 142.619 110.175 141.044 109.794C137.756 109 135.044 106.069 135.319 102.063L135.338 101.844V101.625ZM99.6688 181.856C57.4125 184.781 24.9 147.638 20.0875 106.156C32.5875 105.994 58.45 105.744 67.225 106.244C71.9563 106.513 79.4938 108.888 85.9188 113.325C92.3313 117.756 96.525 123.425 96.8875 129.844L97 131.856C97.4 139.006 97.75 145.356 98.625 150.8C99.5188 156.4 101.019 161.531 104 166.125C107.563 171.619 112.831 175.7 120.15 179.188C113.389 180.528 106.547 181.419 99.6688 181.856Z" fill="#C5C2C2"/>
</svg>
