<svg width="154" height="196" viewBox="0 0 154 196" fill="none" xmlns="http://www.w3.org/2000/svg">
<ellipse cx="26.3125" cy="134.48" rx="6.1875" ry="5.95827" fill="#00478F"/>
<ellipse cx="24.0215" cy="150.521" rx="6.1875" ry="5.95827" fill="#00478F"/>
<path d="M16 174.812L29.777 159.229L33.6458 163.125L26.5417 181.229L16 174.812Z" fill="#00478F"/>
<path d="M40.75 140.896H52.2084V146.854H40.75V140.896Z" fill="#00478F"/>
<path d="M33.6459 130.307L52.2084 131.271V137.411H33.6459V130.307Z" fill="#00478F"/>
<path d="M40.0625 150.521H45.7917L51.5209 149.146V155.104H40.0625V150.521Z" fill="#00478F"/>
<path d="M40.75 159H45.7917L52.2084 157.625V163.583H40.75V159Z" fill="#00478F"/>
<path d="M32.5 167.937H37.7709H52.2083L52.2084 173.895H32.5V167.937Z" fill="#00478F"/>
<rect x="46.4922" y="126.229" width="14.1059" height="6.65946" transform="rotate(89.2754 46.4922 126.229)" fill="#00478F"/>
<path d="M39.1592 140.896L39.1592 164.042L34.1044 164.042L32.5003 140.981L39.1592 140.896Z" fill="#00478F"/>
<path d="M52.209 140.896L52.1995 164.039L46.9807 164.042L45.334 140.983L52.209 140.896Z" fill="#00478F"/>
<path d="M47.1323 164.19L47.1323 183.292L39.7885 183.292L40.7051 164.271L47.1323 164.19Z" fill="#00478F"/>
<path d="M62.0618 128.145L60.4577 183.292L54.0305 183.292L54.0305 128.145L62.0618 128.145Z" fill="#00478F"/>
<rect x="63.667" y="128.979" width="10.0833" height="5.49994" fill="#00478F"/>
<rect x="61.833" y="142.729" width="10.0833" height="7.33326" fill="#00478F"/>
<rect x="61.833" y="156.021" width="10.0833" height="7.33326" fill="#00478F"/>
<path d="M84.291 130.354L129.208 126L131.499 132.646L84.291 137.687V130.354Z" fill="#00478F"/>
<path d="M97.5838 139.238C97.5838 141.137 96.729 142.676 94.3242 142.676C91.9195 142.676 90.8867 141.137 90.8867 139.238C90.8867 137.34 91.9195 135.801 94.3242 135.801C96.729 135.801 97.5838 137.34 97.5838 139.238Z" fill="#00478F"/>
<path d="M113.854 138.833C113.854 140.731 112.134 142.27 109.73 142.27C107.325 142.27 106.292 140.731 106.292 138.833C106.292 136.934 106.292 133.104 109.73 134.02C112.134 134.02 113.854 136.934 113.854 138.833Z" fill="#00478F"/>
<path d="M127.375 143.187C127.375 145.085 124.051 143.187 121.646 143.187C119.242 143.187 120.73 135.002 120.73 133.104C120.73 131.205 121.992 131.958 124.396 131.958C126.801 131.958 127.375 141.288 127.375 143.187Z" fill="#00478F"/>
<path d="M67.7913 128.979H74.208V182.833H66.6455L67.7913 128.979Z" fill="#00478F"/>
<path d="M86.3542 141.354L97.5833 142.5L97.5356 154.875L97.5833 168.854H87.5L86.3542 141.354Z" fill="#00478F"/>
<path d="M100.104 141.354L126.688 142.5L125.313 148.688H100.104V141.354Z" fill="#00478F"/>
<path d="M121.188 142.263L131.271 142.5L129.667 169.763L119.583 168.854L121.188 142.263Z" fill="#00478F"/>
<path d="M97.3542 150.521H122.792V156.021H97.5833L97.3542 150.521Z" fill="#00478F"/>
<path d="M97.3542 157.396H122.792V161.979H97.5833L97.3542 157.396Z" fill="#00478F"/>
<path d="M97.3542 164.271H122.792L119.583 168.854H97.5833L97.3542 164.271Z" fill="#00478F"/>
<path d="M84.0625 179.167L91.3958 174.583L97.5833 168.854H108.354L98.7292 177.562L87.5 184.896L84.0625 179.167Z" fill="#00478F"/>
<path d="M137 182.604L119.583 183.75L112.938 179.167L112.021 168.854H119.583V174.583H128.75L137 171.604V182.604Z" fill="#00478F"/>
<path d="M76.9873 15C104.594 15.0003 126.973 37.3798 126.974 64.9863C126.974 92.593 104.594 114.973 76.9873 114.974C49.3803 114.974 27 92.5932 27 64.9863C27.0002 37.3796 49.3804 15 76.9873 15Z" stroke="url(#paint0_linear_969_774)" stroke-width="8"/>
<path d="M38.3779 41.3768C38.3779 41.3768 45.318 48.6499 58.3722 48.3188C71.4264 47.9877 76.4348 56.6567 76.4348 56.6567" stroke="url(#paint1_linear_969_774)" stroke-width="6" stroke-linecap="round"/>
<path d="M73.5342 82.8088C73.5342 82.8088 74.8259 92.7684 71.5185 102.711C68.2112 112.654 67.255 112.94 67.255 112.94" stroke="url(#paint2_linear_969_774)" stroke-width="6" stroke-linecap="round"/>
<path d="M88.5997 112.94C88.5997 112.94 82.0162 115.235 74.8086 114.926C67.601 114.617 67.2551 112.939 67.2551 112.939" stroke="url(#paint3_linear_969_774)" stroke-width="6" stroke-linecap="round"/>
<path d="M81.0651 81.5533C81.0651 81.5533 78.4862 92.7005 82.1187 101.844C85.7513 110.988 89.0852 112.622 89.0852 112.622" stroke="url(#paint4_linear_969_774)" stroke-width="6" stroke-linecap="round"/>
<path d="M38.3798 41.3787C38.3798 41.3787 37.1248 55.1864 54.7011 62.7203C72.2773 70.2542 73.5344 82.8099 73.5344 82.8099" stroke="url(#paint5_linear_969_774)" stroke-width="6"/>
<path d="M115.79 40.9356C115.79 40.9356 117.045 54.7433 99.4684 62.2771C81.8921 69.811 81.0656 81.5525 81.0656 81.5525" stroke="url(#paint6_linear_969_774)" stroke-width="6"/>
<path d="M116.225 40.7341C116.225 40.7341 108.948 48.1544 95.4646 48.0111C81.9812 47.8677 76.6802 56.6647 76.6802 56.6647" stroke="url(#paint7_linear_969_774)" stroke-width="6" stroke-linecap="round"/>
<defs>
<linearGradient id="paint0_linear_969_774" x1="76.9868" y1="11" x2="76.9868" y2="118.973" gradientUnits="userSpaceOnUse">
<stop stop-color="#0C2C4D"/>
<stop offset="0.317308" stop-color="#0F52BA"/>
<stop offset="0.514423" stop-color="#00478F"/>
<stop offset="0.692308" stop-color="#0F52BA"/>
<stop offset="1" stop-color="#07437B"/>
</linearGradient>
<linearGradient id="paint1_linear_969_774" x1="58.7642" y1="45.9131" x2="56.6247" y2="50.8034" gradientUnits="userSpaceOnUse">
<stop stop-color="#0E4068"/>
<stop offset="0.533654" stop-color="#07437B"/>
<stop offset="1" stop-color="#0E4068"/>
</linearGradient>
<linearGradient id="paint2_linear_969_774" x1="73.555" y1="99.2572" x2="67.4974" y2="96.607" gradientUnits="userSpaceOnUse">
<stop stop-color="#0E4068"/>
<stop offset="0.533654" stop-color="#07437B"/>
<stop offset="1" stop-color="#0E4068"/>
</linearGradient>
<linearGradient id="paint3_linear_969_774" x1="77.5635" y1="115.499" x2="78.1387" y2="111.453" gradientUnits="userSpaceOnUse">
<stop stop-color="#0E4068"/>
<stop offset="0.533654" stop-color="#07437B"/>
<stop offset="1" stop-color="#0E4068"/>
</linearGradient>
<linearGradient id="paint4_linear_969_774" x1="80.8174" y1="98.9507" x2="87.4133" y2="96.0649" gradientUnits="userSpaceOnUse">
<stop stop-color="#0E4068"/>
<stop offset="0.533654" stop-color="#07437B"/>
<stop offset="1" stop-color="#0E4068"/>
</linearGradient>
<linearGradient id="paint5_linear_969_774" x1="58.241" y1="60.1944" x2="52.1408" y2="65.2691" gradientUnits="userSpaceOnUse">
<stop stop-color="#0E4068"/>
<stop offset="0.533654" stop-color="#07437B"/>
<stop offset="1" stop-color="#0E4068"/>
</linearGradient>
<linearGradient id="paint6_linear_969_774" x1="96.1682" y1="59.3646" x2="102.316" y2="64.4792" gradientUnits="userSpaceOnUse">
<stop stop-color="#0E4068"/>
<stop offset="0.533654" stop-color="#07437B"/>
<stop offset="1" stop-color="#0E4068"/>
</linearGradient>
<linearGradient id="paint7_linear_969_774" x1="95.0946" y1="45.5959" x2="97.2341" y2="50.4862" gradientUnits="userSpaceOnUse">
<stop stop-color="#0E4068"/>
<stop offset="0.533654" stop-color="#07437B"/>
<stop offset="1" stop-color="#0E4068"/>
</linearGradient>
</defs>
</svg>
