<svg width="509" height="206" viewBox="0 0 509 206" fill="none" xmlns="http://www.w3.org/2000/svg">
<rect width="509" height="206" fill="white"/>
<ellipse cx="234.5" cy="57.5" rx="13.5" ry="13" fill="#00478F"/>
<ellipse cx="229.5" cy="92.5" rx="13.5" ry="13" fill="#00478F"/>
<path d="M212 145.5L242.059 111.5L250.5 120L235 159.5L212 145.5Z" fill="#00478F"/>
<path d="M266 71.5003H291V84.5004H266V71.5003Z" fill="#00478F"/>
<path d="M250.5 48.3965L291 50.5004V63.8965H250.5V48.3965Z" fill="#00478F"/>
<path d="M264.5 92.5004H277L289.5 89.5004V102.5H264.5V92.5004Z" fill="#00478F"/>
<path d="M266 111H277L291 108V121H266V111Z" fill="#00478F"/>
<path d="M248 130.5H259.5H291L291 143.5H248V130.5Z" fill="#00478F"/>
<rect x="278.528" y="39.5" width="30.7767" height="14.5297" transform="rotate(89.2755 278.528 39.5)" fill="#00478F"/>
<path d="M262.528 71.5L262.528 122L251.5 122L248 71.6837L262.528 71.5Z" fill="#00478F"/>
<path d="M291 71.5L290.979 121.994L279.593 121.999L276 71.6897L291 71.5Z" fill="#00478F"/>
<path d="M279.926 122.323L279.926 164L263.903 164L265.903 122.5L279.926 122.323Z" fill="#00478F"/>
<path d="M312.5 43.6776L309 164L294.977 164L294.977 43.6776L312.5 43.6776Z" fill="#00478F"/>
<rect x="316" y="45.5" width="22" height="12" fill="#00478F"/>
<rect x="312" y="75.5" width="22" height="16" fill="#00478F"/>
<rect x="312" y="104.5" width="22" height="16" fill="#00478F"/>
<path d="M361 48.5L459 39L464 53.5L361 64.5V48.5Z" fill="#00478F"/>
<path d="M390 67.8829C390 72.025 388.135 75.3828 382.889 75.3828C377.642 75.3828 375.389 72.0249 375.389 67.8828C375.389 63.7407 377.642 60.3828 382.889 60.3828C388.135 60.3828 390 63.7407 390 67.8829Z" fill="#00478F"/>
<path d="M425.5 66.9996C425.5 71.1417 421.747 74.4996 416.5 74.4996C411.253 74.4996 409 71.1417 409 66.9996C409 62.8575 409 54.4996 416.5 56.4996C421.747 56.4996 425.5 62.8575 425.5 66.9996Z" fill="#00478F"/>
<path d="M455 76.4999C455 80.642 447.747 76.4999 442.5 76.4999C437.253 76.4999 440.5 58.642 440.5 54.4999C440.5 50.3578 443.253 51.9999 448.5 51.9999C453.747 51.9999 455 72.3577 455 76.4999Z" fill="#00478F"/>
<path d="M325 45.5H339V163H322.5L325 45.5Z" fill="#00478F"/>
<path d="M365.5 72.5L390 75L389.896 102L390 132.5H368L365.5 72.5Z" fill="#00478F"/>
<path d="M395.5 72.5L453.5 75L450.5 88.5H395.5V72.5Z" fill="#00478F"/>
<path d="M441.5 74.4828L463.5 75L460 134.483L438 132.5L441.5 74.4828Z" fill="#00478F"/>
<path d="M389.5 92.5H445V104.5H390L389.5 92.5Z" fill="#00478F"/>
<path d="M389.5 107.5H445V117.5H390L389.5 107.5Z" fill="#00478F"/>
<path d="M389.5 122.5H445L438 132.5H390L389.5 122.5Z" fill="#00478F"/>
<path d="M360.5 155L376.5 145L390 132.5H413.5L392.5 151.5L368 167.5L360.5 155Z" fill="#00478F"/>
<path d="M476 162.5L438 165L423.5 155L421.5 132.5H438V145H458L476 138.5V162.5Z" fill="#00478F"/>
<path d="M125.232 44C158.498 44 185.465 70.967 185.465 104.232C185.465 137.498 158.498 164.465 125.232 164.465C91.9669 164.465 65 137.498 65 104.232C65 70.9671 91.9669 44.0001 125.232 44Z" stroke="url(#paint0_linear_650_971)" stroke-width="8"/>
<path d="M79.2961 76.1413C79.2961 76.1413 87.5533 84.7947 103.085 84.4008C118.617 84.0069 124.576 94.3211 124.576 94.3211" stroke="url(#paint1_linear_650_971)" stroke-width="6" stroke-linecap="round"/>
<path d="M121.125 125.437C121.125 125.437 122.662 137.286 118.727 149.116C114.792 160.946 113.654 161.287 113.654 161.287" stroke="url(#paint2_linear_650_971)" stroke-width="6" stroke-linecap="round"/>
<path d="M139.05 161.286C139.05 161.286 131.217 164.016 122.641 163.649C114.066 163.281 113.654 161.285 113.654 161.285" stroke="url(#paint3_linear_650_971)" stroke-width="6" stroke-linecap="round"/>
<path d="M130.085 123.942C130.085 123.942 127.017 137.205 131.339 148.084C135.661 158.963 139.628 160.907 139.628 160.907" stroke="url(#paint4_linear_650_971)" stroke-width="6" stroke-linecap="round"/>
<path d="M79.2984 76.1435C79.2984 76.1435 77.8052 92.5717 98.7171 101.535C119.629 110.499 121.125 125.438 121.125 125.438" stroke="url(#paint5_linear_650_971)" stroke-width="6"/>
<path d="M171.401 75.6162C171.401 75.6162 172.894 92.0443 151.982 101.008C131.07 109.972 130.087 123.942 130.087 123.942" stroke="url(#paint6_linear_650_971)" stroke-width="6"/>
<path d="M171.918 75.3765C171.918 75.3765 163.26 84.2051 147.218 84.0346C131.175 83.864 124.868 94.3305 124.868 94.3305" stroke="url(#paint7_linear_650_971)" stroke-width="6" stroke-linecap="round"/>
<defs>
<linearGradient id="paint0_linear_650_971" x1="125.233" y1="40" x2="125.233" y2="168.465" gradientUnits="userSpaceOnUse">
<stop stop-color="#0C2C4D"/>
<stop offset="0.317308" stop-color="#0F52BA"/>
<stop offset="0.514423" stop-color="#00478F"/>
<stop offset="0.692308" stop-color="#0F52BA"/>
<stop offset="1" stop-color="#07437B"/>
</linearGradient>
<linearGradient id="paint1_linear_650_971" x1="103.551" y1="81.5386" x2="101.006" y2="87.3569" gradientUnits="userSpaceOnUse">
<stop stop-color="#0E4068"/>
<stop offset="0.533654" stop-color="#07437B"/>
<stop offset="1" stop-color="#0E4068"/>
</linearGradient>
<linearGradient id="paint2_linear_650_971" x1="121.15" y1="145.007" x2="113.942" y2="141.854" gradientUnits="userSpaceOnUse">
<stop stop-color="#0E4068"/>
<stop offset="0.533654" stop-color="#07437B"/>
<stop offset="1" stop-color="#0E4068"/>
</linearGradient>
<linearGradient id="paint3_linear_650_971" x1="125.919" y1="164.331" x2="126.603" y2="159.517" gradientUnits="userSpaceOnUse">
<stop stop-color="#0E4068"/>
<stop offset="0.533654" stop-color="#07437B"/>
<stop offset="1" stop-color="#0E4068"/>
</linearGradient>
<linearGradient id="paint4_linear_650_971" x1="129.791" y1="144.641" x2="137.639" y2="141.208" gradientUnits="userSpaceOnUse">
<stop stop-color="#0E4068"/>
<stop offset="0.533654" stop-color="#07437B"/>
<stop offset="1" stop-color="#0E4068"/>
</linearGradient>
<linearGradient id="paint5_linear_650_971" x1="102.929" y1="98.53" x2="95.671" y2="104.568" gradientUnits="userSpaceOnUse">
<stop stop-color="#0E4068"/>
<stop offset="0.533654" stop-color="#07437B"/>
<stop offset="1" stop-color="#0E4068"/>
</linearGradient>
<linearGradient id="paint6_linear_650_971" x1="148.055" y1="97.5428" x2="155.37" y2="103.628" gradientUnits="userSpaceOnUse">
<stop stop-color="#0E4068"/>
<stop offset="0.533654" stop-color="#07437B"/>
<stop offset="1" stop-color="#0E4068"/>
</linearGradient>
<linearGradient id="paint7_linear_650_971" x1="146.778" y1="81.161" x2="149.323" y2="86.9794" gradientUnits="userSpaceOnUse">
<stop stop-color="#0E4068"/>
<stop offset="0.533654" stop-color="#07437B"/>
<stop offset="1" stop-color="#0E4068"/>
</linearGradient>
</defs>
</svg>
