<svg width="305" height="206" viewBox="0 0 305 206" fill="none" xmlns="http://www.w3.org/2000/svg">
<rect width="305" height="206" fill="white"/>
<ellipse cx="43.5" cy="63" rx="13.5" ry="13" fill="#00478F"/>
<ellipse cx="38.5" cy="98" rx="13.5" ry="13" fill="#00478F"/>
<path d="M21 151L51.0589 117L59.5 125.5L44 165L21 151Z" fill="#00478F"/>
<path d="M75.0001 76.9999H100V89.9999H75.0001V76.9999Z" fill="#00478F"/>
<path d="M59.5001 53.896L100 55.9999V69.396H59.5001V53.896Z" fill="#00478F"/>
<path d="M73.5001 97.9999H86.0001L98.5001 94.9999V108H73.5001V97.9999Z" fill="#00478F"/>
<path d="M75.0001 116.5H86.0001L100 113.5V126.5H75.0001V116.5Z" fill="#00478F"/>
<path d="M57 136H68.5001H100L100 149H57V136Z" fill="#00478F"/>
<rect x="87.5283" y="45" width="30.7767" height="14.5297" transform="rotate(89.2755 87.5283 45)" fill="#00478F"/>
<path d="M71.5283 77L71.5283 127.5L60.4998 127.5L56.9998 77.1837L71.5283 77Z" fill="#00478F"/>
<path d="M100 77L99.9792 127.494L88.5929 127.499L85.0001 77.1897L100 77Z" fill="#00478F"/>
<path d="M88.9264 127.823L88.9264 169.5L72.9034 169.5L74.9034 128L88.9264 127.823Z" fill="#00478F"/>
<path d="M121.5 49.1776L118 169.5L103.977 169.5L103.977 49.1776L121.5 49.1776Z" fill="#00478F"/>
<rect x="125" y="51" width="22" height="12" fill="#00478F"/>
<rect x="121" y="81" width="22" height="16" fill="#00478F"/>
<rect x="121" y="110" width="22" height="16" fill="#00478F"/>
<path d="M170 54L268 44.5L273 59L170 70V54Z" fill="#00478F"/>
<path d="M199 73.3834C199 77.5255 197.135 80.8833 191.889 80.8833C186.642 80.8833 184.389 77.5254 184.389 73.3833C184.389 69.2412 186.642 65.8833 191.889 65.8833C197.135 65.8833 199 69.2412 199 73.3834Z" fill="#00478F"/>
<path d="M234.5 72.5001C234.5 76.6422 230.747 80.0001 225.5 80.0001C220.253 80.0001 218 76.6422 218 72.5001C218 68.358 218 60.0001 225.5 62.0001C230.747 62.0001 234.5 68.358 234.5 72.5001Z" fill="#00478F"/>
<path d="M264 81.9999C264 86.142 256.747 81.9999 251.5 81.9999C246.253 81.9999 249.5 64.142 249.5 59.9999C249.5 55.8578 252.253 57.4999 257.5 57.4999C262.747 57.4999 264 77.8577 264 81.9999Z" fill="#00478F"/>
<path d="M134 51H148V168.5H131.5L134 51Z" fill="#00478F"/>
<path d="M174.5 78L199 80.5L198.896 107.5L199 138H177L174.5 78Z" fill="#00478F"/>
<path d="M204.5 78L262.5 80.5L259.5 94H204.5V78Z" fill="#00478F"/>
<path d="M250.5 79.9828L272.5 80.5L269 139.983L247 138L250.5 79.9828Z" fill="#00478F"/>
<path d="M198.5 98H254V110H199L198.5 98Z" fill="#00478F"/>
<path d="M198.5 113H254V123H199L198.5 113Z" fill="#00478F"/>
<path d="M198.5 128H254L247 138H199L198.5 128Z" fill="#00478F"/>
<path d="M169.5 160.5L185.5 150.5L199 138H222.5L201.5 157L177 173L169.5 160.5Z" fill="#00478F"/>
<path d="M285 168L247 170.5L232.5 160.5L230.5 138H247V150.5H267L285 144V168Z" fill="#00478F"/>
</svg>
