<svg width="26" height="27" viewBox="0 0 26 27" fill="none" xmlns="http://www.w3.org/2000/svg">
<path d="M12.8105 6.42583C9.17611 6.42583 6.24455 9.44526 6.24455 13.1886C6.24455 16.932 9.17611 19.9514 12.8105 19.9514C16.445 19.9514 19.3765 16.932 19.3765 13.1886C19.3765 9.44526 16.445 6.42583 12.8105 6.42583ZM12.8105 17.5853C10.4619 17.5853 8.54179 15.6136 8.54179 13.1886C8.54179 10.7637 10.4562 8.79193 12.8105 8.79193C15.1649 8.79193 17.0793 10.7637 17.0793 13.1886C17.0793 15.6136 15.1592 17.5853 12.8105 17.5853ZM21.1766 6.1492C21.1766 7.02619 20.4909 7.7266 19.6451 7.7266C18.7937 7.7266 18.1136 7.0203 18.1136 6.1492C18.1136 5.2781 18.7994 4.5718 19.6451 4.5718C20.4909 4.5718 21.1766 5.2781 21.1766 6.1492ZM25.5254 7.75014C25.4282 5.63714 24.9596 3.76545 23.4567 2.22337C21.9595 0.681282 20.1423 0.198646 18.0908 0.0927015C15.9764 -0.0309005 9.63898 -0.0309005 7.52461 0.0927015C5.47881 0.19276 3.66159 0.675397 2.15866 2.21748C0.655743 3.75956 0.192865 5.63125 0.0900038 7.74426C-0.0300013 9.92201 -0.0300013 16.4494 0.0900038 18.6271C0.187151 20.7401 0.655743 22.6118 2.15866 24.1539C3.66159 25.696 5.47309 26.1786 7.52461 26.2846C9.63898 26.4082 15.9764 26.4082 18.0908 26.2846C20.1423 26.1845 21.9595 25.7019 23.4567 24.1539C24.9539 22.6118 25.4225 20.7401 25.5254 18.6271C25.6454 16.4494 25.6454 9.92789 25.5254 7.75014ZM22.7938 20.9638C22.3481 22.1174 21.4852 23.0062 20.3594 23.4711C18.6737 24.1598 14.6735 24.0009 12.8105 24.0009C10.9476 24.0009 6.94173 24.1539 5.26165 23.4711C4.14161 23.0121 3.27871 22.1233 2.82726 20.9638C2.15866 19.2275 2.31296 15.1074 2.31296 13.1886C2.31296 11.2699 2.16438 7.1439 2.82726 5.41347C3.273 4.25986 4.13589 3.3711 5.26165 2.90612C6.94744 2.21748 10.9476 2.3764 12.8105 2.3764C14.6735 2.3764 18.6794 2.22336 20.3594 2.90612C21.4795 3.36521 22.3424 4.25397 22.7938 5.41347C23.4624 7.14979 23.3081 11.2699 23.3081 13.1886C23.3081 15.1074 23.4624 19.2334 22.7938 20.9638Z" fill="white"/>
</svg>
