<svg width="26" height="26" viewBox="0 0 26 26" fill="none" xmlns="http://www.w3.org/2000/svg">
<path d="M22.8709 0H2.74451C2.01662 0 1.31854 0.289153 0.803847 0.803847C0.289152 1.31854 0 2.01662 0 2.74451L0 22.8709C0 23.5988 0.289152 24.2968 0.803847 24.8115C1.31854 25.3262 2.01662 25.6154 2.74451 25.6154H10.5921V16.9067H6.98991V12.8077H10.5921V9.68353C10.5921 6.12997 12.7076 4.16707 15.9479 4.16707C17.4997 4.16707 19.1223 4.44381 19.1223 4.44381V7.93162H17.3344C15.5728 7.93162 15.0233 9.02485 15.0233 10.1461V12.8077H18.956L18.327 16.9067H15.0233V25.6154H22.8709C23.5988 25.6154 24.2968 25.3262 24.8115 24.8115C25.3262 24.2968 25.6154 23.5988 25.6154 22.8709V2.74451C25.6154 2.01662 25.3262 1.31854 24.8115 0.803847C24.2968 0.289153 23.5988 0 22.8709 0Z" fill="#F9FCFF"/>
<path d="M19.1465 4.42285L19.126 4.41992H19.125C19.1243 4.4198 19.1234 4.41916 19.1221 4.41895C19.1189 4.41842 19.1136 4.41801 19.1074 4.41699C19.0952 4.41497 19.0771 4.41195 19.0537 4.4082C19.0062 4.40062 18.9359 4.38896 18.8477 4.37598C18.6712 4.35002 18.4198 4.31583 18.1201 4.28125C17.5201 4.21202 16.7253 4.1426 15.9482 4.14258C14.3234 4.14258 12.9776 4.63494 12.0381 5.5752C11.0986 6.51571 10.5674 7.90194 10.5674 9.68359V12.7832H6.96582V16.9307H10.5674V25.5908H2.74414C2.02286 25.5907 1.33132 25.304 0.821289 24.7939C0.311271 24.2839 0.0244711 23.5924 0.0244141 22.8711V2.74414C0.0245107 2.02286 0.311259 1.33132 0.821289 0.821289C1.33132 0.311259 2.02286 0.0245107 2.74414 0.0244141H22.8711C23.5924 0.0244711 24.2839 0.311271 24.7939 0.821289C25.304 1.33132 25.5907 2.02286 25.5908 2.74414V22.8711C25.5908 23.5924 25.304 24.2839 24.7939 24.7939C24.2839 25.304 23.5924 25.5908 22.8711 25.5908H15.0479V16.9307H18.3477L18.3516 16.9102L18.9805 12.8115L18.9844 12.7832H15.0479V10.1465C15.0479 9.58943 15.1847 9.0423 15.5371 8.63477C15.8889 8.22795 16.4587 7.95614 17.334 7.95605H19.1465V4.42285Z" stroke="black" stroke-opacity="0.5" stroke-width="0.0488281"/>
</svg>
