<svg width="26" height="25" viewBox="0 0 26 25" fill="none" xmlns="http://www.w3.org/2000/svg">
<path d="M25.0801 3.7913C24.7855 2.29896 23.9175 1.12364 22.8155 0.724778C20.8179 0 12.8077 0 12.8077 0C12.8077 0 4.79758 0 2.79993 0.724778C1.69785 1.1237 0.829857 2.29896 0.535258 3.7913C0 6.49624 0 12.1399 0 12.1399C0 12.1399 0 17.7835 0.535258 20.4884C0.829857 21.9808 1.69785 23.1071 2.79993 23.506C4.79758 24.2308 12.8077 24.2308 12.8077 24.2308C12.8077 24.2308 20.8178 24.2308 22.8155 23.506C23.9175 23.1071 24.7855 21.9808 25.0801 20.4884C25.6154 17.7835 25.6154 12.1399 25.6154 12.1399C25.6154 12.1399 25.6154 6.49624 25.0801 3.7913ZM10.1879 17.2639V7.01588L16.8828 12.14L10.1879 17.2639Z" fill="white"/>
</svg>
