<svg width="26" height="26" viewBox="0 0 26 26" fill="none" xmlns="http://www.w3.org/2000/svg">
<rect width="25.6154" height="25.6154" fill="#0F52BA"/>
<path fill-rule="evenodd" clip-rule="evenodd" d="M4.89255 3.45274C6.89909 1.11 9.67729 0 12.6882 0C15.5624 0 18.1037 0.688414 20.0643 2.09512C22.0463 3.51678 23.341 5.60337 23.802 8.19159C23.8359 8.36534 23.8348 8.54409 23.7989 8.71742C23.7629 8.89075 23.6928 9.0552 23.5927 9.20118C23.4926 9.34716 23.3644 9.47175 23.2157 9.56771C23.0669 9.66366 22.9005 9.72905 22.7263 9.76006C22.552 9.79108 22.3733 9.78711 22.2006 9.74837C22.0278 9.70964 21.8645 9.63691 21.7202 9.53444C21.5759 9.43197 21.4533 9.3018 21.3598 9.15151C21.2663 9.00122 21.2036 8.83382 21.1754 8.65907C20.8285 6.71443 19.8925 5.25436 18.5103 4.26389C17.1079 3.25849 15.1526 2.66827 12.6882 2.66827C10.3614 2.66827 8.35917 3.50717 6.9183 5.18818C5.46143 6.88947 4.46136 9.59403 4.46136 13.5239C4.46136 17.3149 5.7432 19.6032 7.38578 20.9705C9.07213 22.375 11.3092 22.9471 13.4054 22.9471C17.5444 22.9471 20.0814 20.5115 20.1999 17.8475C20.2586 16.5251 19.7068 15.4567 18.6822 14.6744L18.6075 14.6178C18.4015 15.5549 18.061 16.3896 17.5914 17.1025C16.6095 18.5936 15.1152 19.4645 13.4033 19.5904C11.8236 19.7078 10.4981 19.3279 9.52894 18.5487C9.08106 18.1903 8.71341 17.7419 8.44976 17.2324C8.18612 16.723 8.03235 16.1639 7.99842 15.5912C7.94719 14.7128 8.09448 13.4161 9.09561 12.3434C10.1021 11.2654 11.7244 10.6773 14.0426 10.6773C14.7267 10.6773 15.3959 10.7275 16.0406 10.83C15.8132 9.7093 15.3009 9.16497 14.8569 8.87039C14.256 8.47015 13.5655 8.39331 13.2293 8.39331C12.2858 8.39331 11.4501 8.74765 10.6646 9.64846C10.431 9.91125 10.1032 10.0712 9.7524 10.0937C9.40156 10.1161 9.05606 9.99915 8.79098 9.76824C8.5259 9.53733 8.36267 9.21113 8.33677 8.86053C8.31087 8.50994 8.4244 8.16329 8.65268 7.89594C9.90356 6.46041 11.4533 5.72504 13.2293 5.72504C13.8515 5.72504 15.1302 5.84778 16.3341 6.64719C17.6074 7.49357 18.6203 8.98246 18.7996 11.353L18.8188 11.6614C19.3524 11.9112 19.8498 12.2089 20.3013 12.5537C21.9652 13.8238 22.9653 15.7033 22.8649 17.966C22.6643 22.4743 18.5125 25.6154 13.4054 25.6154C10.8791 25.6154 7.97494 24.9323 5.67809 23.0218C3.33749 21.0729 1.79309 17.9831 1.79309 13.5249C1.79309 9.1639 2.90309 5.77307 4.89255 3.45274ZM16.0886 13.5505C15.4157 13.4108 14.7299 13.3421 14.0426 13.3456C12.1321 13.3456 11.3594 13.8291 11.0466 14.1642C10.7297 14.5036 10.6347 14.9572 10.6624 15.4343C10.6838 15.8122 10.8567 16.1911 11.2035 16.4696C11.5451 16.7461 12.1631 17.0065 13.2069 16.9296C14.0821 16.8656 14.8292 16.444 15.3628 15.635C15.6958 15.1291 15.9627 14.4396 16.0886 13.5505Z" fill="white"/>
</svg>
